<mxfile host="app.diagrams.net" modified="2021-07-17T22:08:54.090Z" agent="5.0 (Macintosh; Intel Mac OS X 10_15_7) AppleWebKit/537.36 (KHTML, like Gecko) Chrome/91.0.4472.114 Safari/537.36" etag="eMhh7IKFsOV9NiM4nfo-" version="14.9.0" type="github">
  <diagram name="Page-1" id="74e2e168-ea6b-b213-b513-2b3c1d86103e">
    <mxGraphModel dx="946" dy="589" grid="1" gridSize="10" guides="1" tooltips="1" connect="1" arrows="1" fold="1" page="1" pageScale="1" pageWidth="1100" pageHeight="850" background="none" math="0" shadow="0">
      <root>
        <mxCell id="0" />
        <mxCell id="1" parent="0" />
        <mxCell id="77e6c97f196da883-1" value="Most Common Case: One Shipment" style="swimlane;html=1;childLayout=stackLayout;startSize=20;rounded=0;shadow=0;labelBackgroundColor=none;strokeWidth=1;fontFamily=Verdana;fontSize=8;align=center;" parent="1" vertex="1">
          <mxGeometry x="70" y="40" width="660" height="480" as="geometry" />
        </mxCell>
        <mxCell id="77e6c97f196da883-2" value="Store Website" style="swimlane;html=1;startSize=20;" parent="77e6c97f196da883-1" vertex="1">
          <mxGeometry y="20" width="160" height="460" as="geometry" />
        </mxCell>
        <mxCell id="77e6c97f196da883-8" value="Customer Places Order" style="rounded=1;whiteSpace=wrap;html=1;shadow=0;labelBackgroundColor=none;strokeWidth=1;fontFamily=Verdana;fontSize=8;align=center;" parent="77e6c97f196da883-2" vertex="1">
          <mxGeometry x="30" y="50" width="100" height="60" as="geometry" />
        </mxCell>
        <mxCell id="77e6c97f196da883-4" value="Orders List" style="swimlane;html=1;startSize=20;" parent="77e6c97f196da883-1" vertex="1">
          <mxGeometry x="160" y="20" width="160" height="460" as="geometry" />
        </mxCell>
        <mxCell id="4eTe2Ta117DHhqG4NUob-17" value="" style="edgeStyle=orthogonalEdgeStyle;rounded=0;orthogonalLoop=1;jettySize=auto;html=1;" edge="1" parent="77e6c97f196da883-4" source="4eTe2Ta117DHhqG4NUob-12" target="4eTe2Ta117DHhqG4NUob-15">
          <mxGeometry relative="1" as="geometry" />
        </mxCell>
        <mxCell id="4eTe2Ta117DHhqG4NUob-12" value="Order Is Created&amp;nbsp;&lt;br&gt;&lt;b&gt;Order Fulfillment Status:&lt;/b&gt; Unfulfilled" style="rounded=1;whiteSpace=wrap;html=1;shadow=0;labelBackgroundColor=none;strokeWidth=1;fontFamily=Verdana;fontSize=8;align=center;" vertex="1" parent="77e6c97f196da883-4">
          <mxGeometry x="30" y="50" width="100" height="60" as="geometry" />
        </mxCell>
        <mxCell id="4eTe2Ta117DHhqG4NUob-15" value="Administrator decides how to ship all Products of the order&lt;br&gt;&lt;b&gt;Order Fulfillment Status:&lt;/b&gt; Fulfilled" style="rounded=1;whiteSpace=wrap;html=1;shadow=0;labelBackgroundColor=none;strokeWidth=1;fontFamily=Verdana;fontSize=8;align=center;" vertex="1" parent="77e6c97f196da883-4">
          <mxGeometry x="30" y="150" width="100" height="60" as="geometry" />
        </mxCell>
        <mxCell id="77e6c97f196da883-5" value="Shipments List" style="swimlane;html=1;startSize=20;" parent="77e6c97f196da883-1" vertex="1">
          <mxGeometry x="320" y="20" width="160" height="460" as="geometry" />
        </mxCell>
        <mxCell id="4eTe2Ta117DHhqG4NUob-13" value="Shipment is Created for the order.&lt;br&gt;&lt;b&gt;Shipment status:&lt;/b&gt; Requested&lt;br&gt;&lt;br&gt;Items are packed" style="rounded=1;whiteSpace=wrap;html=1;shadow=0;labelBackgroundColor=none;strokeWidth=1;fontFamily=Verdana;fontSize=8;align=center;" vertex="1" parent="77e6c97f196da883-5">
          <mxGeometry x="40" y="110" width="100" height="60" as="geometry" />
        </mxCell>
        <mxCell id="4eTe2Ta117DHhqG4NUob-26" value="Updates Shipment Status to delivered." style="rounded=1;whiteSpace=wrap;html=1;shadow=0;labelBackgroundColor=none;strokeWidth=1;fontFamily=Verdana;fontSize=8;align=center;" vertex="1" parent="77e6c97f196da883-5">
          <mxGeometry x="30" y="320" width="100" height="60" as="geometry" />
        </mxCell>
        <mxCell id="4eTe2Ta117DHhqG4NUob-7" value="Shipping Processor" style="swimlane;html=1;startSize=20;" vertex="1" parent="77e6c97f196da883-5">
          <mxGeometry x="160" width="160" height="460" as="geometry" />
        </mxCell>
        <mxCell id="4eTe2Ta117DHhqG4NUob-24" value="" style="edgeStyle=orthogonalEdgeStyle;rounded=0;orthogonalLoop=1;jettySize=auto;html=1;" edge="1" parent="4eTe2Ta117DHhqG4NUob-7" source="4eTe2Ta117DHhqG4NUob-14" target="4eTe2Ta117DHhqG4NUob-21">
          <mxGeometry relative="1" as="geometry" />
        </mxCell>
        <mxCell id="4eTe2Ta117DHhqG4NUob-14" value="Accepts Shipping Request" style="rounded=1;whiteSpace=wrap;html=1;shadow=0;labelBackgroundColor=none;strokeWidth=1;fontFamily=Verdana;fontSize=8;align=center;" vertex="1" parent="4eTe2Ta117DHhqG4NUob-7">
          <mxGeometry x="40" y="110" width="100" height="60" as="geometry" />
        </mxCell>
        <mxCell id="4eTe2Ta117DHhqG4NUob-21" value="Delivers Shipment" style="rounded=1;whiteSpace=wrap;html=1;shadow=0;labelBackgroundColor=none;strokeWidth=1;fontFamily=Verdana;fontSize=8;align=center;" vertex="1" parent="4eTe2Ta117DHhqG4NUob-7">
          <mxGeometry x="30" y="320" width="100" height="60" as="geometry" />
        </mxCell>
        <mxCell id="4eTe2Ta117DHhqG4NUob-23" value="Packing" style="text;html=1;strokeColor=none;fillColor=none;align=center;verticalAlign=middle;whiteSpace=wrap;rounded=0;" vertex="1" parent="4eTe2Ta117DHhqG4NUob-7">
          <mxGeometry x="-20" y="160" width="40" height="20" as="geometry" />
        </mxCell>
        <mxCell id="4eTe2Ta117DHhqG4NUob-25" value="Shipment Status: In Transit" style="text;html=1;strokeColor=none;fillColor=none;align=center;verticalAlign=middle;whiteSpace=wrap;rounded=0;" vertex="1" parent="4eTe2Ta117DHhqG4NUob-7">
          <mxGeometry x="20" y="240" width="50" height="40" as="geometry" />
        </mxCell>
        <mxCell id="4eTe2Ta117DHhqG4NUob-19" value="" style="edgeStyle=orthogonalEdgeStyle;rounded=0;orthogonalLoop=1;jettySize=auto;html=1;" edge="1" parent="77e6c97f196da883-5" source="4eTe2Ta117DHhqG4NUob-13" target="4eTe2Ta117DHhqG4NUob-14">
          <mxGeometry relative="1" as="geometry" />
        </mxCell>
        <mxCell id="4eTe2Ta117DHhqG4NUob-27" value="" style="edgeStyle=orthogonalEdgeStyle;rounded=0;orthogonalLoop=1;jettySize=auto;html=1;" edge="1" parent="77e6c97f196da883-5" source="4eTe2Ta117DHhqG4NUob-21" target="4eTe2Ta117DHhqG4NUob-26">
          <mxGeometry relative="1" as="geometry" />
        </mxCell>
        <mxCell id="4eTe2Ta117DHhqG4NUob-16" value="" style="edgeStyle=orthogonalEdgeStyle;rounded=0;orthogonalLoop=1;jettySize=auto;html=1;" edge="1" parent="77e6c97f196da883-1" source="77e6c97f196da883-8" target="4eTe2Ta117DHhqG4NUob-12">
          <mxGeometry relative="1" as="geometry" />
        </mxCell>
        <mxCell id="4eTe2Ta117DHhqG4NUob-18" value="" style="edgeStyle=orthogonalEdgeStyle;rounded=0;orthogonalLoop=1;jettySize=auto;html=1;" edge="1" parent="77e6c97f196da883-1" source="4eTe2Ta117DHhqG4NUob-15" target="4eTe2Ta117DHhqG4NUob-13">
          <mxGeometry relative="1" as="geometry" />
        </mxCell>
        <mxCell id="4eTe2Ta117DHhqG4NUob-22" value="Label" style="text;html=1;strokeColor=none;fillColor=none;align=center;verticalAlign=middle;whiteSpace=wrap;rounded=0;" vertex="1" parent="1">
          <mxGeometry x="370" y="220" width="40" height="20" as="geometry" />
        </mxCell>
      </root>
    </mxGraphModel>
  </diagram>
</mxfile>
